<svg xmlns="http://www.w3.org/2000/svg" viewBox="0 0 100 100">
  <rect width="100" height="100" rx="12" fill="#6A2E2B"/>
  <!-- Falcon silhouette -->
  <g fill="#F7F3EE">
    <!-- Body -->
    <ellipse cx="50" cy="58" rx="14" ry="18" transform="rotate(-15 50 58)"/>
    <!-- Head -->
    <circle cx="58" cy="32" r="11"/>
    <!-- Beak -->
    <polygon points="68,30 75,35 65,38"/>
    <!-- Wing left -->
    <path d="M36 55 Q15 35 12 20 Q25 30 36 45 Z"/>
    <!-- Wing right -->
    <path d="M64 55 Q82 40 88 25 Q75 35 62 50 Z"/>
    <!-- Tail -->
    <path d="M44 72 Q40 88 35 95 Q44 82 50 78 Q56 82 65 95 Q60 88 56 72 Z"/>
    <!-- Eye -->
    <circle cx="61" cy="28" r="2.5" fill="#6A2E2B"/>
  </g>
</svg>
